<?xml version="1.0" standalone="no"?><svg xmlns="http://www.w3.org/2000/svg" viewBox="0 0 1440 320"><path fill="#0099ff" fill-opacity="1" d="M0,256L17.1,224C34.3,192,69,128,103,90.7C137.1,53,171,43,206,64C240,85,274,139,309,133.3C342.9,128,377,64,411,37.3C445.7,11,480,21,514,37.3C548.6,53,583,75,617,112C651.4,149,686,203,720,197.3C754.3,192,789,128,823,106.7C857.1,85,891,107,926,101.3C960,96,994,64,1029,48C1062.9,32,1097,32,1131,37.3C1165.7,43,1200,53,1234,53.3C1268.6,53,1303,43,1337,42.7C1371.4,43,1406,53,1423,58.7L1440,64L1440,320L1422.9,320C1405.7,320,1371,320,1337,320C1302.9,320,1269,320,1234,320C1200,320,1166,320,1131,320C1097.1,320,1063,320,1029,320C994.3,320,960,320,926,320C891.4,320,857,320,823,320C788.6,320,754,320,720,320C685.7,320,651,320,617,320C582.9,320,549,320,514,320C480,320,446,320,411,320C377.1,320,343,320,309,320C274.3,320,240,320,206,320C171.4,320,137,320,103,320C68.6,320,34,320,17,320L0,320Z"></path></svg>